<?xml version="1.0" encoding="UTF-8"?>
<svg height="128px" viewBox="0 0 128 128" width="128px" xmlns="http://www.w3.org/2000/svg" xmlns:xlink="http://www.w3.org/1999/xlink">
    <filter id="a" height="100%" width="100%" x="0%" y="0%">
        <feColorMatrix color-interpolation-filters="sRGB" values="0 0 0 0 1 0 0 0 0 1 0 0 0 0 1 0 0 0 1 0"/>
    </filter>
    <linearGradient id="b" gradientTransform="matrix(1 0 0 1.703861 -0.088671 -345.111105)" gradientUnits="userSpaceOnUse" x1="64.088661" x2="64.246254" y1="231.304779" y2="272.799438">
        <stop offset="0" stop-color="#e5a50a"/>
        <stop offset="0.147396" stop-color="#b58410"/>
        <stop offset="0.226305" stop-color="#9d7313"/>
        <stop offset="0.285298" stop-color="#866316"/>
        <stop offset="1" stop-color="#272222"/>
    </linearGradient>
    <linearGradient id="c" gradientUnits="userSpaceOnUse" x1="63.999988" x2="63.999988" y1="127.255335" y2="41.078028">
        <stop offset="0" stop-color="#c01c28" stop-opacity="0.474482"/>
        <stop offset="0.0875641" stop-color="#222222"/>
        <stop offset="0.362686" stop-color="#811e23"/>
        <stop offset="0.571558" stop-color="#b01c23"/>
        <stop offset="0.799183" stop-color="#e01b24"/>
    </linearGradient>
    <linearGradient id="d" gradientUnits="userSpaceOnUse" x1="57.088673" x2="73.088676" y1="230.666656" y2="230.666656">
        <stop offset="0" stop-color="#c0bfbc"/>
        <stop offset="0.25" stop-color="#cfcecb"/>
        <stop offset="0.5" stop-color="#deddda" stop-opacity="0.770151"/>
        <stop offset="0.75" stop-color="#cfcecb"/>
        <stop offset="1" stop-color="#c0bfbc"/>
    </linearGradient>
    <clipPath id="e">
        <rect height="128" width="128"/>
    </clipPath>
    <clipPath id="f">
        <rect height="128" width="128"/>
    </clipPath>
    <mask id="g">
        <g filter="url(#a)">
            <g clip-path="url(#f)" filter="url(#a)">
                <g clip-path="url(#e)">
                    <path d="m 106 57 c 0 4.417969 -18.804688 8 -42 8 s -42 -3.582031 -42 -8 s 18.804688 -8 42 -8 s 42 3.582031 42 8 z m 0 0" fill="url(#b)"/>
                    <path d="m 106 64 c 0 4.417969 -18.804688 8 -42 8 s -42 -3.582031 -42 -8 s 18.804688 -8 42 -8 s 42 3.582031 42 8 z m 0 0" fill="#63452c"/>
                    <path d="m 22 56.335938 c -0.667969 0.664062 -1.332031 1.332031 -1 10.332031 s 1.664062 26.332031 5.664062 35.167969 c 4.003907 8.832031 10.667969 9.164062 17.335938 9.5 c 6.667969 0.332031 13.332031 0.664062 20 0.664062 s 13.332031 -0.332031 20 -0.664062 c 6.667969 -0.335938 13.332031 -0.667969 17.335938 -9.5 c 4 -8.835938 5.332031 -26.171876 5.664062 -35.167969 c 0.332031 -9 -0.332031 -9.667969 -1 -10.332031 h -0.117188 c 0.050782 0.105468 0.089844 0.214843 0.117188 0.324218 c -0.003906 4.226563 -18.808594 7.65625 -42 7.65625 s -41.996094 -3.429687 -42 -7.65625 c 0.027344 -0.109375 0.066406 -0.21875 0.117188 -0.324218 z m 0 0" fill="url(#c)"/>
                    <path d="m 64.08867 235.666656 c 2.666094 -2.666796 5.332188 -5.333593 4.000546 -8.00039 c -1.334452 -2.666796 -6.66664 -5.333593 -8.001092 -8.00039 c -1.331642 -2.666797 1.334452 -5.333593 4.000546 -8.00039" fill="none" stroke="url(#d)" stroke-linecap="round" stroke-linejoin="round" stroke-width="2.70582" transform="matrix(1.390435 0 0 1.571701 -41.111151 -314.397447)"/>
                    <path d="m 64.088671 235.666656 c 2.666094 -2.666796 5.332188 -5.333593 4.000546 -8.00039 c -1.334452 -2.666796 -6.66664 -5.333593 -8.001091 -8.00039 c -1.331643 -2.666797 1.334451 -5.333593 4.000545 -8.00039" fill="none" stroke="url(#d)" stroke-linecap="round" stroke-linejoin="round" stroke-width="2.70582" transform="matrix(1.390435 0 0 1.571701 -9.111153 -314.397447)"/>
                    <path d="m 64.088671 235.666656 c 2.666094 -2.666796 5.332188 -5.333593 4.000546 -8.00039 c -1.334452 -2.666796 -6.66664 -5.333593 -8.001091 -8.00039 c -1.331643 -2.666797 1.334451 -5.333593 4.000545 -8.00039" fill="none" stroke="url(#d)" stroke-linecap="round" stroke-linejoin="round" stroke-width="2.70582" transform="matrix(1.390435 0 0 1.571701 -25.111153 -314.397447)"/>
                </g>
            </g>
        </g>
    </mask>
    <mask id="h">
        <g filter="url(#a)">
            <rect fill-opacity="0.8" height="184.32" width="184.32" x="-28.16" y="-28.16"/>
        </g>
    </mask>
    <linearGradient id="i" gradientTransform="matrix(0 0.37 -0.98462 0 295.38501 -30.360001)" gradientUnits="userSpaceOnUse" x1="300" x2="428" y1="235" y2="235">
        <stop offset="0" stop-color="#f9f06b"/>
        <stop offset="1" stop-color="#f5c211"/>
    </linearGradient>
    <clipPath id="j">
        <rect height="128" width="128"/>
    </clipPath>
    <clipPath id="k">
        <rect height="128" width="128"/>
    </clipPath>
    <path d="m 106 57 c 0 4.417969 -18.804688 8 -42 8 s -42 -3.582031 -42 -8 s 18.804688 -8 42 -8 s 42 3.582031 42 8 z m 0 0" fill="url(#b)"/>
    <path d="m 106 64 c 0 4.417969 -18.804688 8 -42 8 s -42 -3.582031 -42 -8 s 18.804688 -8 42 -8 s 42 3.582031 42 8 z m 0 0" fill="#63452c"/>
    <path d="m 22 56.335938 c -0.667969 0.664062 -1.332031 1.332031 -1 10.332031 s 1.664062 26.332031 5.664062 35.167969 c 4.003907 8.832031 10.667969 9.164062 17.335938 9.5 c 6.667969 0.332031 13.332031 0.664062 20 0.664062 s 13.332031 -0.332031 20 -0.664062 c 6.667969 -0.335938 13.332031 -0.667969 17.335938 -9.5 c 4 -8.835938 5.332031 -26.171876 5.664062 -35.167969 c 0.332031 -9 -0.332031 -9.667969 -1 -10.332031 h -0.117188 c 0.050782 0.105468 0.089844 0.214843 0.117188 0.324218 c -0.003906 4.226563 -18.808594 7.65625 -42 7.65625 s -41.996094 -3.429687 -42 -7.65625 c 0.027344 -0.109375 0.066406 -0.21875 0.117188 -0.324218 z m 0 0" fill="url(#c)"/>
    <g fill="none" stroke="url(#d)" stroke-linecap="round" stroke-linejoin="round" stroke-width="2.70582">
        <path d="m 64.08867 235.666656 c 2.666094 -2.666796 5.332188 -5.333593 4.000546 -8.00039 c -1.334452 -2.666796 -6.66664 -5.333593 -8.001092 -8.00039 c -1.331642 -2.666797 1.334452 -5.333593 4.000546 -8.00039" transform="matrix(1.390435 0 0 1.571701 -41.111151 -314.397447)"/>
        <path d="m 64.088671 235.666656 c 2.666094 -2.666796 5.332188 -5.333593 4.000546 -8.00039 c -1.334452 -2.666796 -6.66664 -5.333593 -8.001091 -8.00039 c -1.331643 -2.666797 1.334451 -5.333593 4.000545 -8.00039" transform="matrix(1.390435 0 0 1.571701 -9.111153 -314.397447)"/>
        <path d="m 64.088671 235.666656 c 2.666094 -2.666796 5.332188 -5.333593 4.000546 -8.00039 c -1.334452 -2.666796 -6.66664 -5.333593 -8.001091 -8.00039 c -1.331643 -2.666797 1.334451 -5.333593 4.000545 -8.00039" transform="matrix(1.390435 0 0 1.571701 -25.111153 -314.397447)"/>
    </g>
    <g mask="url(#g)">
        <g clip-path="url(#k)">
            <g mask="url(#h)">
                <g clip-path="url(#j)">
                    <path d="m 128 80.640625 v 47.359375 h -128 v -47.359375 z m 0 0" fill="url(#i)"/>
                    <path d="m 13.308594 80.640625 l 47.355468 47.359375 h 21.214844 l -47.359375 -47.359375 z m 42.421875 0 l 47.363281 47.359375 h 21.214844 l -47.363282 -47.359375 z m 42.429687 0 l 29.839844 29.839844 v -21.210938 l -8.628906 -8.628906 z m -98.160156 7.90625 v 21.214844 l 18.238281 18.238281 h 21.214844 z m 0 0"/>
                </g>
            </g>
        </g>
    </g>
</svg>
