<?xml version="1.0" encoding="UTF-8" standalone="no"?>
<svg
   height="128px"
   viewBox="0 0 128 128"
   width="128px"
   version="1.1"
   id="svg20"
   xmlns="http://www.w3.org/2000/svg"
   xmlns:svg="http://www.w3.org/2000/svg">
  <defs
     id="defs20" />
  <linearGradient
     id="a"
     gradientTransform="matrix(1 0 0 1.703861 -0.088671 -345.111105)"
     gradientUnits="userSpaceOnUse"
     x1="64.088661"
     x2="64.246254"
     y1="231.304779"
     y2="272.799438">
    <stop
       offset="0"
       stop-color="#e5a50a"
       id="stop1" />
    <stop
       offset="0.147396"
       stop-color="#b58410"
       id="stop2" />
    <stop
       offset="0.226305"
       stop-color="#9d7313"
       id="stop3" />
    <stop
       offset="0.285298"
       stop-color="#866316"
       id="stop4" />
    <stop
       offset="1"
       stop-color="#272222"
       id="stop5" />
  </linearGradient>
  <linearGradient
     id="b"
     gradientUnits="userSpaceOnUse"
     x1="63.999988"
     x2="63.999988"
     y1="127.255335"
     y2="41.078028">
    <stop
       offset="0"
       stop-color="#c01c28"
       stop-opacity="0.474482"
       id="stop6" />
    <stop
       offset="0.0875641"
       stop-color="#222222"
       id="stop7" />
    <stop
       offset="0.362686"
       stop-color="#811e23"
       id="stop8" />
    <stop
       offset="0.571558"
       stop-color="#b01c23"
       id="stop9" />
    <stop
       offset="0.799183"
       stop-color="#e01b24"
       id="stop10" />
  </linearGradient>
  <linearGradient
     id="c"
     gradientUnits="userSpaceOnUse"
     x1="57.088673"
     x2="73.088676"
     y1="230.666656"
     y2="230.666656">
    <stop
       offset="0"
       stop-color="#c0bfbc"
       id="stop11" />
    <stop
       offset="0.25"
       stop-color="#cfcecb"
       id="stop12" />
    <stop
       offset="0.5"
       stop-color="#deddda"
       stop-opacity="0.770151"
       id="stop13" />
    <stop
       offset="0.75"
       stop-color="#cfcecb"
       id="stop14" />
    <stop
       offset="1"
       stop-color="#c0bfbc"
       id="stop15" />
  </linearGradient>
  <path
     d="m 106 57 c 0 4.417969 -18.804688 8 -42 8 s -42 -3.582031 -42 -8 s 18.804688 -8 42 -8 s 42 3.582031 42 8 z m 0 0"
     fill="url(#a)"
     id="path15" />
  <path
     d="m 106 64 c 0 4.417969 -18.804688 8 -42 8 s -42 -3.582031 -42 -8 s 18.804688 -8 42 -8 s 42 3.582031 42 8 z m 0 0"
     fill="#63452c"
     id="path16" />
  <path
     d="m 22 56.335938 c -0.667969 0.664062 -1.332031 1.332031 -1 10.332031 s 1.664062 26.332031 5.664062 35.167969 c 4.003907 8.832031 10.667969 9.164062 17.335938 9.5 c 6.667969 0.332031 13.332031 0.664062 20 0.664062 s 13.332031 -0.332031 20 -0.664062 c 6.667969 -0.335938 13.332031 -0.667969 17.335938 -9.5 c 4 -8.835938 5.332031 -26.171876 5.664062 -35.167969 c 0.332031 -9 -0.332031 -9.667969 -1 -10.332031 h -0.117188 c 0.050782 0.105468 0.089844 0.214843 0.117188 0.324218 c -0.003906 4.226563 -18.808594 7.65625 -42 7.65625 s -41.996094 -3.429687 -42 -7.65625 c 0.027344 -0.109375 0.066406 -0.21875 0.117188 -0.324218 z m 0 0"
     fill="url(#b)"
     id="path17" />
</svg>
