<?xml version="1.0" encoding="UTF-8"?>
<svg height="16px" viewBox="0 0 16 16" width="16px" xmlns="http://www.w3.org/2000/svg">
    <g fill="#222222">
        <path d="m 0 6 c 0 0.667969 0 1.332031 0.335938 3 c 0.332031 1.667969 0.996093 4.332031 2.332031 5.667969 c 1.332031 1.332031 3.332031 1.332031 5.332031 1.332031 s 4 0 5.335938 -1.332031 c 1.332031 -1.335938 1.996093 -4 2.332031 -5.667969 c 0.332031 -1.667969 0.332031 -2.332031 0.332031 -3 h -2 c 0.015625 0.667969 0.035156 1.332031 -0.300781 2.574219 c -0.335938 1.246093 -1.019531 3.335937 -2.027344 4.382812 c -1.003906 1.042969 -2.339844 1.042969 -3.671875 1.042969 s -2.664062 0 -3.664062 -1 c -1.003907 -1 -1.667969 -3 -2 -4.332031 c -0.335938 -1.335938 -0.335938 -2 -0.335938 -2.667969 z m 0 0"/>
        <path d="m 8 2 c -4.417969 0 -8 1.789062 -8 4 s 3.582031 4 8 4 s 8 -1.789062 8 -4 s -3.582031 -4 -8 -4 z m 0 2 c 3.3125 0 6 0.894531 6 2 s -2.6875 2 -6 2 s -6 -0.894531 -6 -2 s 2.6875 -2 6 -2 z m 0 0"/>
        <path d="m 5 0 c 0.550781 0 1 0.449219 1 1 v 4 c 0 0.550781 -0.449219 1 -1 1 s -1 -0.449219 -1 -1 v -4 c 0 -0.550781 0.449219 -1 1 -1 z m 0 0"/>
        <path d="m 11 0 c 0.550781 0 1 0.449219 1 1 v 4 c 0 0.550781 -0.449219 1 -1 1 s -1 -0.449219 -1 -1 v -4 c 0 -0.550781 0.449219 -1 1 -1 z m 0 0"/>
        <path d="m 8 0 c 0.550781 0 1 0.449219 1 1 v 4 c 0 0.550781 -0.449219 1 -1 1 s -1 -0.449219 -1 -1 v -4 c 0 -0.550781 0.449219 -1 1 -1 z m 0 0"/>
    </g>
</svg>
